HIERARCHY
ROOT Hips
{
  OFFSET 196.326 95.9168 97.7182
  CHANNELS 6 Xposition Yposition Zposition Zrotation Xrotation Yrotation
  JOINT LeftUpLeg
  {
    OFFSET 8.64259 1.95398 -2.38835
    CHANNELS 3 Zrotation Xrotation Yrotation
    JOINT LeftLeg
    {
      OFFSET 43.7702 0 0
      CHANNELS 3 Zrotation Xrotation Yrotation
      JOINT LeftFoot
      {
        OFFSET 40.6238 0 0
        CHANNELS 3 Zrotation Xrotation Yrotation
        JOINT LeftToeBase
        {
          OFFSET 12.7242 0 0
          CHANNELS 3 Zrotation Xrotation Yrotation
          End Site
          {
            OFFSET 0 0 0
          }
        }
      }
    }
  }
  JOINT RightUpLeg
  {
    OFFSET -8.2249 1.95398 -2.59336
    CHANNELS 3 Zrotation Xrotation Yrotation
    JOINT RightLeg
    {
      OFFSET 43.5653 0 0
      CHANNELS 3 Zrotation Xrotation Yrotation
      JOINT RightFoot
      {
        OFFSET 40.6238 0 0
        CHANNELS 3 Zrotation Xrotation Yrotation
        JOINT RightToeBase
        {
          OFFSET 12.7242 0 0
          CHANNELS 3 Zrotation Xrotation Yrotation
          End Site
          {
            OFFSET 0 0 0
          }
        }
      }
    }
  }
  JOINT Spine
  {
    OFFSET 0.165834 0.87714 6.61349
    CHANNELS 3 Zrotation Xrotation Yrotation
    JOINT Spine1
    {
      OFFSET 7.38963 1.71661e-005 0
      CHANNELS 3 Zrotation Xrotation Yrotation
      JOINT Spine2
      {
        OFFSET 11.9445 1.14441e-005 0
        CHANNELS 3 Zrotation Xrotation Yrotation
        JOINT Spine3
        {
          OFFSET 14.7254 4.19617e-005 0
          CHANNELS 3 Zrotation Xrotation Yrotation
          JOINT Spine4
          {
            OFFSET 10.9679 0 0
            CHANNELS 3 Zrotation Xrotation Yrotation
            JOINT RightShoulder
            {
              OFFSET 2.46616 -1.6653 3.69651
              CHANNELS 3 Zrotation Xrotation Yrotation
              JOINT RightArm
              {
                OFFSET 13.0012 0 0
                CHANNELS 3 Zrotation Xrotation Yrotation
                JOINT RightForeArm
                {
                  OFFSET 28.7848 1.52588e-005 0
                  CHANNELS 3 Zrotation Xrotation Yrotation
                  JOINT RightHand
                  {
                    OFFSET 26.5688 1.52588e-005 0
                    CHANNELS 3 Zrotation Xrotation Yrotation
                    End Site
                    {
                      OFFSET 0 0 0
                    }
                  }
                }
              }
            }
            JOINT LeftShoulder
            {
              OFFSET 2.38034 -1.29275 -3.75231
              CHANNELS 3 Zrotation Xrotation Yrotation
              JOINT LeftArm
              {
                OFFSET 16.3182 6.10351e-005 0
                CHANNELS 3 Zrotation Xrotation Yrotation
                JOINT LeftForeArm
                {
                  OFFSET 27.0901 0 0
                  CHANNELS 3 Zrotation Xrotation Yrotation
                  JOINT LeftHand
                  {
                    OFFSET 24.5451 1.52588e-005 0
                    CHANNELS 3 Zrotation Xrotation Yrotation
                    End Site
                    {
                      OFFSET 0 0 0
                    }
                  }
                }
              }
            }
            JOINT Neck
            {
              OFFSET 5.0226 -0.0266342 0
              CHANNELS 3 Zrotation Xrotation Yrotation
              JOINT Head
              {
                OFFSET 6.69363 2.86102e-005 0
                CHANNELS 3 Zrotation Xrotation Yrotation
                End Site
                {
                  OFFSET 0 0 0
                }
              }
            }
          }
        }
      }
    }
  }
}
MOTION
Frames:	9
Frame Time:	0.0416667
-3.46016 96.1497 -20.9973 -87.1999 -59.9609 -85.455 -173 8.68375 90.7528 -22.052 13.027 0.255943 62.6445 9.63931 17.0684 47.3629 16.4594 -19.5969 -179.642 15.7553 85.4337 -38.2332 3.77811 -6.40897 67.5891 -4.1379 -2.20363 42.6593 1.67488 13.7429 0.242707 7.48622 -89.8799 11.9014 0.539124 0.18229 0.230603 0.546626 0.158371 -22.3052 0.459413 0.335899 -2.29255 0.459412 0.335884 85.1432 -47.1829 -109.129 35.9445 -11.327 25.3976 -16.4656 -10.8122 -60.759 -12.1839 -0.969985 4.15236 -96.3195 -40.01 65.8843 -32.5757 6.90715 16.7473 19.3051 2.90099 -74.3227 13.4363 1.07282 3.99836 11.055 22.2748 -2.6863 0.459318 22.9909 10.0294 
-0.475947 96.4407 -17.0183 -82.3946 -68.2055 -79.623 -174.528 8.59205 89.6087 -21.4438 19.0425 0.730944 63.3662 9.84735 16.3808 44.1637 14.3678 -16.6621 -178.525 17.6238 88.9429 -39.9878 3.17839 -5.51703 64.6151 -3.15471 -1.74712 44.6733 1.92227 12.1944 0.0729111 7.45538 -89.7701 11.9624 0.253376 0.43118 0.291451 0.272101 0.419597 -22.2432 0.112082 0.48739 -2.23053 0.112075 0.487386 85.0624 -47.5102 -109.143 36.8481 -11.4631 25.7066 -17.6774 -11.8714 -60.1481 -9.45206 -0.799697 4.18956 -96.332 -39.353 65.6082 -29.9318 4.48671 17.6765 18.5128 3.92322 -70.9565 12.7279 1.13173 4.83194 12.0947 18.0201 -4.17797 2.12502 19.2246 8.52791 
2.78025 96.8228 -12.8924 -69.6954 -76.9848 -65.0081 -174.285 8.27275 89.6393 -20.4302 22.8581 0.153018 63.1066 9.2607 16.7713 42.3141 12.9927 -15.4176 -178.142 19.4952 92.5278 -38.5245 2.3365 -3.87359 60.8964 -2.01143 -1.11261 42.2421 1.50327 12.0365 -0.179939 7.49071 -89.8476 11.8927 -0.285928 0.334699 0.221719 -0.270928 0.346953 -22.3135 -0.373311 0.233285 -2.30085 -0.373318 0.233285 85.153 -47.8738 -108.882 37.2949 -11.8247 26.3884 -16.0664 -12.0921 -58.9069 -8.13594 -0.701342 3.99524 -96.6035 -39.278 65.1326 -26.6401 3.44793 17.3969 17.6904 3.47167 -70.8386 12.4066 1.08505 4.67419 12.7108 13.6084 -4.77039 4.1924 15.0837 6.78812 
6.27811 96.4314 -8.85755 -26.2348 -81.9423 -21.3552 -174.386 8.02251 87.5946 -18.8702 19.0213 -0.508253 62.4124 9.00421 16.6544 45.3528 16.6669 -8.71025 -178.555 24.3574 93.6052 -37.6605 3.37676 -2.4225 58.5602 -1.00218 -0.483603 45.1076 2.12319 13.8313 -0.412029 7.43065 -89.7785 12.0141 -0.714625 0.519829 0.343241 -0.69105 0.550772 -22.1932 -0.837805 0.281028 -2.18056 -0.837818 0.281011 85.022 -48.6482 -108.829 37.4754 -12.3938 27.8214 -14.6372 -11.6807 -57.7427 -7.50242 -0.633785 3.55946 -96.8433 -39.0538 64.6486 -23.5147 2.75379 15.4519 18.1149 3.001 -72.5249 12.7075 1.05114 4.23725 12.6686 9.19474 -5.36963 6.50566 10.9548 5.68292 
9.95106 95.167 -5.42273 27.7216 -79.227 32.985 -174.165 8.82668 85.5287 -21.3209 11.7986 -0.914083 63.4135 10.8261 16.1975 50.575 22.5777 -4.74551 -179.652 30.3661 94.1183 -38.6952 4.88661 -0.802084 62.0238 -1.53316 -0.826807 45.0351 1.99085 12.3177 -0.597794 7.45318 -89.8498 11.9702 -1.1177 0.421051 0.299599 -1.09808 0.469833 -22.2394 -1.19256 0.0656352 -2.22669 -1.19256 0.0656277 85.6505 -48.6995 -107.849 37.5136 -13.032 29.2803 -13.1634 -12.2168 -55.5611 -7.38716 -0.558626 2.2562 -97.455 -39.7006 63.9118 -20.0905 1.65278 11.6135 18.9338 2.13064 -76.0125 13.3245 1.12967 4.46297 13.0585 5.00218 -4.73259 8.23442 6.68026 4.64055 
13.1737 93.0536 -2.48955 49.9313 -72.6363 55.7783 -173.151 10.7099 84.3746 -27.0074 11.0859 -1.76181 61.7256 12.7619 22.0575 60.7698 29.0734 -13.4275 179.535 37.6025 94.383 -41.0235 6.45228 0.29589 63.0783 -1.66095 -0.89672 46.1921 2.08566 11.1606 -0.686363 7.64783 -89.9608 11.5802 -1.34701 0.21706 -0.0901006 -1.33616 0.276131 -22.6308 -1.34997 -0.197889 -2.61817 -1.34996 -0.197886 85.0898 -49.4668 -108.46 36.6422 -12.9987 30.7522 -11.9879 -12.0572 -53.1666 -6.28679 -0.484271 1.87168 -98.8474 -40.4598 61.9835 -16.0247 -1.20273 6.86108 20.1067 0.412724 -82.3452 13.9053 1.06224 3.67755 14.6218 0.591142 -5.75269 9.40782 2.89913 5.54765 
15.677 90.3682 0.421612 61.5802 -65.9531 68.2434 -173.787 11.9982 84.7979 -35.6084 15.9509 -1.04745 63.6164 17.2134 25.7812 65.3211 31.6972 -16.3308 178.115 44.2914 94.8406 -43.5268 6.80754 1.57803 64.6682 -1.85394 -0.99588 48.0831 2.31602 10.4716 -0.732196 8.05003 -90.0421 10.775 -1.47741 0.0518278 -0.895132 -1.47369 0.116817 -23.4367 -1.42466 -0.394685 -3.42408 -1.42467 -0.394681 82.9615 -51.3866 -111.006 35.0114 -13.9991 31.6239 -10.807 -15.1642 -49.2286 -8.89737 -0.607593 1.705 -99.8074 -39.9539 60.2253 -12.1868 -3.07899 0.683805 19.1347 -0.317071 -89.2277 15.258 1.32194 4.71831 17.535 -3.64148 -7.31607 9.86753 -0.607565 5.41968 
18.3494 87.6703 4.15919 66.3928 -59.7216 74.3967 -175.071 10.8036 86.6634 -40.6212 22.8372 0.239301 64.103 20.7575 29.9529 72.0682 34.786 -21.2052 175.967 50.2701 95.3829 -44.1051 6.68211 3.37003 63.3161 -1.32935 -0.670178 52.0405 2.92292 10.3644 -0.819989 8.37294 -90.243 10.1266 -1.74475 -0.335193 -1.54321 -1.75781 -0.258062 -24.0859 -1.56334 -0.844172 -4.07327 -1.56333 -0.844185 82.0514 -50.8807 -112.527 35.0879 -14.8896 31.7573 -11.954 -18.4404 -47.37 -13.3642 -0.935055 3.08642 -98.7444 -37.9011 61.0302 -12.1405 -4.06391 -6.10157 20.6496 -4.00962 -94.5086 16.9213 1.69614 6.1029 21.0171 -6.48306 -7.56162 8.4762 -3.16952 5.01499 
22.5099 86.1258 9.71631 65.2371 -54.5031 74.1006 -175.653 6.07715 87.7984 -36.2591 26.9717 1.06867 63.6489 20.8654 30.8164 72.033 35.5569 -19.5553 173.085 54.928 95.1001 -43.2916 6.94086 5.70476 61.2161 -0.566742 -0.177218 57.2138 3.39175 8.41273 -0.900327 8.19346 -90.4051 10.4814 -1.97927 -0.629991 -1.18819 -2.00507 -0.542232 -23.7316 -1.69842 -1.19584 -3.71892 -1.69841 -1.19584 82.2538 -49.8663 -112.594 36.1036 -13.2888 35.1621 -12.54 -15.0816 -50.8603 -18.1868 -1.20591 3.10548 -97.5209 -36.0502 62.2402 -12.8828 -0.356448 -10.3139 23.1245 -4.71731 -96.5456 14.6553 1.50895 6.26668 22.1287 -7.37406 -7.4046 6.40332 -3.99752 5.81608 
